ffmpeg version n2.6.1 Copyright (c) 2000-2015 the FFmpeg developers
  built with gcc 4.8 (Ubuntu 4.8.2-19ubuntu1)
  configuration: --prefix=/opt/ffmpeg --extra-cflags=-I/opt/ffmpeg/include --extra-ldflags=-L/opt/ffmpeg/lib --extra-libs=-ldl --enable-gpl --enable-libass --enable-libfdk-aac --enable-libfreetype --enable-libmp3lame --enable-libtheora --enable-libvorbis --enable-libvpx --enable-libx264 --enable-libx265 --enable-nonfree
  libavutil      54. 20.100 / 54. 20.100
  libavcodec     56. 26.100 / 56. 26.100
  libavformat    56. 25.101 / 56. 25.101
  libavdevice    56.  4.100 / 56.  4.100
  libavfilter     5. 11.102 /  5. 11.102
  libswscale      3.  1.101 /  3.  1.101
  libswresample   1.  1.100 /  1.  1.100
  libpostproc    53.  3.100 / 53.  3.100
Guessed Channel Layout for  Input Stream #0.1 : mono
Guessed Channel Layout for  Input Stream #0.2 : mono
Input #0, mov,mp4,m4a,3gp,3g2,mj2, from 'AULA PROFISSOES.mov':
  Metadata:
    major_brand     : qt  
    minor_version   : 537199360
    compatible_brands: qt  
    creation_time   : 2014-04-03 18:19:14
  Duration: 00:15:46.41, start: 0.000000, bitrate: 34926 kb/s
    Stream #0:0(eng): Video: mpeg2video (Main) (xdvb / 0x62766478), yuv420p(tv, bt709), 1920x1080 [SAR 1:1 DAR 16:9], 33386 kb/s, 29.97 fps, 29.97 tbr, 2997 tbn, 59.94 tbc (default)
    Metadata:
      creation_time   : 2014-04-03 18:19:14
      handler_name    : Apple Alias Data Handler
      encoder         : XDCAM EX 1080i60 (35 Mb/s VBR)
      timecode        : 01:00:00;00
    Stream #0:1(eng): Audio: pcm_s16le (sowt / 0x74776F73), 48000 Hz, 1 channels, s16, 768 kb/s (default)
    Metadata:
      creation_time   : 2014-04-03 18:19:14
      handler_name    : Apple Alias Data Handler
    Stream #0:2(eng): Audio: pcm_s16le (sowt / 0x74776F73), 48000 Hz, 1 channels, s16, 768 kb/s (default)
    Metadata:
      creation_time   : 2014-04-03 18:19:14
      handler_name    : Apple Alias Data Handler
    Stream #0:3(eng): Data: none (tmcd / 0x64636D74) (default)
    Metadata:
      creation_time   : 2014-04-03 18:19:14
      handler_name    : Apple Alias Data Handler
      timecode        : 01:00:00;00
Input #1, png_pipe, from '/opt/transcoder/imagens/bug_tv_escola_cropped.png':
  Duration: N/A, bitrate: N/A
    Stream #1:0: Video: png, rgba, 129x157 [SAR 1:1 DAR 129:157], 25 tbr, 25 tbn, 25 tbc
[libx264 @ 0x2cd3080] using SAR=640/639
[libx264 @ 0x2cd3080] using cpu capabilities: MMX2 SSE2Fast SSSE3 SSE4.2 AVX
[libx264 @ 0x2cd3080] profile Main, level 3.1
[libx264 @ 0x2cd3080] 264 - core 146 r49 121396c - H.264/MPEG-4 AVC codec - Copyleft 2003-2015 - http://www.videolan.org/x264.html - options: cabac=1 ref=3 deblock=1:0:0 analyse=0x1:0x111 me=hex subme=7 psy=1 psy_rd=1.00:0.00 mixed_ref=1 me_range=16 chroma_me=1 trellis=1 8x8dct=0 cqm=0 deadzone=21,11 fast_pskip=1 chroma_qp_offset=-2 threads=16 lookahead_threads=2 sliced_threads=0 nr=0 decimate=1 interlaced=0 bluray_compat=0 constrained_intra=0 bframes=3 b_pyramid=2 b_adapt=1 b_bias=0 direct=1 weightb=1 open_gop=0 weightp=2 keyint=250 keyint_min=25 scenecut=40 intra_refresh=0 rc_lookahead=40 rc=abr mbtree=1 bitrate=640 ratetol=1.0 qcomp=0.60 qpmin=0 qpmax=69 qpstep=4 ip_ratio=1.40 aq=1:1.00
Output #0, mp4, to 'AULA PROFISSOES_media.mp4':
  Metadata:
    major_brand     : qt  
    minor_version   : 537199360
    compatible_brands: qt  
    encoder         : Lavf56.25.101
    Stream #0:0: Video: h264 (libx264) ([33][0][0][0] / 0x0021), yuv420p, 852x480 [SAR 640:639 DAR 16:9], q=-1--1, 640 kb/s, 29.97 fps, 11988 tbn, 29.97 tbc (default)
    Metadata:
      encoder         : Lavc56.26.100 libx264
    Stream #0:1(eng): Audio: aac (libfdk_aac) ([64][0][0][0] / 0x0040), 48000 Hz, mono, s16, 72 kb/s (default)
    Metadata:
      creation_time   : 2014-04-03 18:19:14
      handler_name    : Apple Alias Data Handler
      encoder         : Lavc56.26.100 libfdk_aac
Stream mapping:
  Stream #0:0 (mpeg2video) -> overlay:main (graph 0)
  Stream #1:0 (png) -> overlay:overlay (graph 0)
  overlay (graph 0) -> Stream #0:0 (libx264)
  Stream #0:1 -> #0:1 (pcm_s16le (native) -> aac (libfdk_aac))
Press [q] to stop, [?] for help
frame=   55 fps=0.0 q=0.0 size=       0kB time=00:00:02.45 bitrate=   0.2kbits/s    frame=  104 fps=104 q=18.0 size=      94kB time=00:00:04.20 bitrate= 182.7kbits/s    frame=  156 fps=103 q=16.0 size=     244kB time=00:00:05.95 bitrate= 335.2kbits/s    frame=  208 fps=103 q=18.0 size=     424kB time=00:00:07.44 bitrate= 466.5kbits/s    frame=  254 fps=101 q=20.0 size=     603kB time=00:00:09.21 bitrate= 535.7kbits/s    frame=  303 fps=101 q=18.0 size=     703kB time=00:00:10.94 bitrate= 526.1kbits/s    frame=  343 fps= 97 q=18.0 size=     800kB time=00:00:11.94 bitrate= 548.4kbits/s    frame=  382 fps= 94 q=24.0 size=    1211kB time=00:00:13.44 bitrate= 737.9kbits/s    frame=  416 fps= 91 q=26.0 size=    1402kB time=00:00:14.44 bitrate= 795.2kbits/s    frame=  452 fps= 89 q=27.0 size=    1552kB time=00:00:15.93 bitrate= 797.6kbits/s    frame=  489 fps= 88 q=28.0 size=    1684kB time=00:00:16.93 bitrate= 814.2kbits/s    frame=  525 fps= 86 q=29.0 size=    1810kB time=00:00:18.17 bitrate= 815.7kbits/s    frame=  568 fps= 86 q=29.0 size=    1942kB time=00:00:19.43 bitrate= 818.8kbits/s    frame=  607 fps= 86 q=26.0 size=    2048kB time=00:00:20.94 bitrate= 800.7kbits/s    frame=  648 fps= 85 q=30.0 size=    2204kB time=00:00:22.44 bitrate= 804.5kbits/s    frame=  690 fps= 85 q=30.0 size=    2313kB time=00:00:23.44 bitrate= 808.2kbits/s    frame=  728 fps= 85 q=30.0 size=    2422kB time=00:00:24.93 bitrate= 795.7kbits/s    frame=  770 fps= 85 q=31.0 size=    2533kB time=00:00:26.43 bitrate= 785.1kbits/s    frame=  807 fps= 84 q=30.0 size=    2620kB time=00:00:27.43 bitrate= 782.4kbits/s    frame=  844 fps= 83 q=31.0 size=    2728kB time=00:00:28.92 bitrate= 772.4kbits/s    frame=  884 fps= 83 q=31.0 size=    2864kB time=00:00:30.42 bitrate= 771.1kbits/s    frame=  925 fps= 83 q=31.0 size=    2955kB time=00:00:31.44 bitrate= 769.9kbits/s    frame=  963 fps= 83 q=31.0 size=    3038kB time=00:00:32.93 bitrate= 755.6kbits/s    frame= 1001 fps= 82 q=30.0 size=    3124kB time=00:00:33.94 bitrate= 754.0kbits/s    frame= 1042 fps= 82 q=30.0 size=    3219kB time=00:00:35.43 bitrate= 744.1kbits/s    frame= 1078 fps= 82 q=30.0 size=    3302kB time=00:00:36.45 bitrate= 741.9kbits/s    frame= 1117 fps= 82 q=30.0 size=    3387kB time=00:00:37.93 bitrate= 731.5kbits/s    frame= 1161 fps= 82 q=30.0 size=    3512kB time=00:00:39.42 bitrate= 729.8kbits/s    frame= 1201 fps= 82 q=29.0 size=    3576kB time=00:00:40.93 bitrate= 715.5kbits/s    frame= 1243 fps= 82 q=29.0 size=    3682kB time=00:00:41.94 bitrate= 719.1kbits/s    frame= 1284 fps= 82 q=29.0 size=    3800kB time=00:00:43.43 bitrate= 716.8kbits/s    frame= 1327 fps= 82 q=29.0 size=    3910kB time=00:00:44.92 bitrate= 712.9kbits/s    frame= 1360 fps= 81 q=29.0 size=    3994kB time=00:00:45.93 bitrate= 712.3kbits/s    frame= 1397 fps= 81 q=30.0 size=    4155kB time=00:00:47.42 bitrate= 717.8kbits/s    frame= 1439 fps= 81 q=30.0 size=    4275kB time=00:00:48.44 bitrate= 722.9kbits/s    frame= 1480 fps= 81 q=29.0 size=    4383kB time=00:00:49.92 bitrate= 719.2kbits/s    frame= 1523 fps= 81 q=29.0 size=    4496kB time=00:00:51.43 bitrate= 716.1kbits/s    frame= 1572 fps= 82 q=29.0 size=    4644kB time=00:00:52.92 bitrate= 718.8kbits/s    frame= 1614 fps= 82 q=29.0 size=    4717kB time=00:00:54.42 bitrate= 710.0kbits/s    frame= 1658 fps= 82 q=29.0 size=    4857kB time=00:00:55.93 bitrate= 711.3kbits/s    frame= 1704 fps= 82 q=29.0 size=    4940kB time=00:00:57.42 bitrate= 704.6kbits/s    frame= 1750 fps= 82 q=29.0 size=    5045kB time=00:00:58.92 bitrate= 701.4kbits/s    frame= 1797 fps= 82 q=28.0 size=    5135kB time=00:01:00.43 bitrate= 696.1kbits/s    frame= 1840 fps= 83 q=28.0 size=    5218kB time=00:01:01.93 bitrate= 690.2kbits/s    frame= 1878 fps= 82 q=28.0 size=    5316kB time=00:01:03.42 bitrate= 686.6kbits/s    frame= 1915 fps= 82 q=29.0 size=    5557kB time=00:01:04.42 bitrate= 706.6kbits/s    frame= 1947 fps= 82 q=30.0 size=    5776kB time=00:01:05.42 bitrate= 723.2kbits/s    frame= 1983 fps= 82 q=30.0 size=    5965kB time=00:01:06.92 bitrate= 730.2kbits/s    frame= 2019 fps= 81 q=31.0 size=    6115kB time=00:01:07.92 bitrate= 737.5kbits/s    frame= 2053 fps= 81 q=31.0 size=    6277kB time=00:01:08.94 bitrate= 745.7kbits/s    frame= 2090 fps= 81 q=32.0 size=    6444kB time=00:01:10.42 bitrate= 749.7kbits/s    frame= 2128 fps= 81 q=32.0 size=    6593kB time=00:01:11.44 bitrate= 755.9kbits/s    frame= 2163 fps= 81 q=33.0 size=    6795kB time=00:01:12.91 bitrate= 763.4kbits/s    frame= 2203 fps= 81 q=33.0 size=    6938kB time=00:01:13.92 bitrate= 768.9kbits/s    frame= 2240 fps= 80 q=33.0 size=    7063kB time=00:01:15.41 bitrate= 767.3kbits/s    frame= 2277 fps= 80 q=33.0 size=    7177kB time=00:01:16.43 bitrate= 769.2kbits/s    frame= 2317 fps= 80 q=33.0 size=    7301kB time=00:01:17.93 bitrate= 767.5kbits/s    frame= 2358 fps= 80 q=34.0 size=    7448kB time=00:01:19.42 bitrate= 768.2kbits/s    frame= 2396 fps= 80 q=33.0 size=    7605kB time=00:01:20.64 bitrate= 772.6kbits/s    frame= 2435 fps= 80 q=34.0 size=    7711kB time=00:01:21.92 bitrate= 771.1kbits/s    frame= 2476 fps= 80 q=34.0 size=    7842kB time=00:01:23.41 bitrate= 770.2kbits/s    frame= 2512 fps= 80 q=34.0 size=    7943kB time=00:01:24.41 bitrate= 770.8kbits/s    frame= 2551 fps= 80 q=34.0 size=    8065kB time=00:01:25.90 bitrate= 769.0kbits/s    frame= 2591 fps= 80 q=34.0 size=    8173kB time=00:01:26.91 bitrate= 770.4kbits/s    frame= 2628 fps= 80 q=34.0 size=    8276kB time=00:01:28.42 bitrate= 766.7kbits/s    frame= 2667 fps= 80 q=34.0 size=    8428kB time=00:01:29.40 bitrate= 772.2kbits/s    frame= 2708 fps= 80 q=34.0 size=    8556kB time=00:01:30.92 bitrate= 770.8kbits/s    frame= 2742 fps= 80 q=35.0 size=    8649kB time=00:01:32.03 bitrate= 769.9kbits/s    frame= 2782 fps= 80 q=34.0 size=    8718kB time=00:01:33.41 bitrate= 764.5kbits/s    frame= 2822 fps= 80 q=34.0 size=    8789kB time=00:01:34.91 bitrate= 758.6kbits/s    frame= 2865 fps= 80 q=34.0 size=    8865kB time=00:01:36.40 bitrate= 753.3kbits/s    frame= 2901 fps= 79 q=34.0 size=    8972kB time=00:01:37.40 bitrate= 754.5kbits/s    frame= 2942 fps= 79 q=34.0 size=    9102kB time=00:01:38.92 bitrate= 753.8kbits/s    frame= 2982 fps= 79 q=34.0 size=    9190kB time=00:01:39.92 bitrate= 753.4kbits/s    frame= 3020 fps= 79 q=34.0 size=    9285kB time=00:01:41.41 bitrate= 750.0kbits/s    frame= 3058 fps= 79 q=34.0 size=    9366kB time=00:01:42.91 bitrate= 745.5kbits/s    frame= 3099 fps= 79 q=34.0 size=    9502kB time=00:01:43.91 bitrate= 749.1kbits/s    frame= 3138 fps= 79 q=34.0 size=    9570kB time=00:01:45.40 bitrate= 743.7kbits/s    frame= 3182 fps= 79 q=33.0 size=    9634kB time=00:01:46.90 bitrate= 738.3kbits/s    frame= 3221 fps= 79 q=33.0 size=    9709kB time=00:01:47.90 bitrate= 737.1kbits/s    frame= 3261 fps= 79 q=33.0 size=    9779kB time=00:01:49.41 bitrate= 732.2kbits/s    frame= 3302 fps= 79 q=33.0 size=    9844kB time=00:01:50.91 bitrate= 727.1kbits/s    frame= 3343 fps= 79 q=33.0 size=   10000kB time=00:01:52.40 bitrate= 728.8kbits/s    frame= 3384 fps= 79 q=33.0 size=   10112kB time=00:01:53.40 bitrate= 730.4kbits/s    frame= 3422 fps= 79 q=33.0 size=   10208kB time=00:01:54.90 bitrate= 727.8kbits/s    frame= 3466 fps= 79 q=33.0 size=   10335kB time=00:01:56.41 bitrate= 727.2kbits/s    frame= 3503 fps= 79 q=33.0 size=   10478kB time=00:01:57.39 bitrate= 731.2kbits/s    frame= 3540 fps= 79 q=33.0 size=   10583kB time=00:01:58.91 bitrate= 729.1kbits/s    frame= 3581 fps= 79 q=33.0 size=   10701kB time=00:01:59.93 bitrate= 730.9kbits/s    frame= 3621 fps= 79 q=33.0 size=   10808kB time=00:02:01.40 bitrate= 729.3kbits/s    frame= 3659 fps= 79 q=33.0 size=   10926kB time=00:02:02.90 bitrate= 728.3kbits/s    frame= 3701 fps= 79 q=33.0 size=   11041kB time=00:02:03.90 bitrate= 730.0kbits/s    frame= 3734 fps= 79 q=30.0 size=   11118kB time=00:02:05.39 bitrate= 726.3kbits/s    frame= 3775 fps= 79 q=33.0 size=   11302kB time=00:02:06.42 bitrate= 732.3kbits/s    frame= 3815 fps= 79 q=33.0 size=   11398kB time=00:02:07.89 bitrate= 730.1kbits/s    frame= 3855 fps= 79 q=33.0 size=   11494kB time=00:02:09.40 bitrate= 727.6kbits/s    frame= 3895 fps= 79 q=33.0 size=   11573kB time=00:02:10.43 bitrate= 726.9kbits/s    frame= 3934 fps= 79 q=33.0 size=   11683kB time=00:02:11.90 bitrate= 725.6kbits/s    frame= 3976 fps= 79 q=33.0 size=   11796kB time=00:02:13.39 bitrate= 724.4kbits/s    frame= 4013 fps= 79 q=33.0 size=   11957kB time=00:02:14.40 bitrate= 728.8kbits/s    frame= 4058 fps= 79 q=33.0 size=   12042kB time=00:02:15.89 bitrate= 725.9kbits/s    frame= 4099 fps= 79 q=33.0 size=   12121kB time=00:02:17.40 bitrate= 722.6kbits/s    frame= 4138 fps= 79 q=32.0 size=   12189kB time=00:02:18.90 bitrate= 718.9kbits/s    frame= 4182 fps= 79 q=32.0 size=   12280kB time=00:02:20.39 bitrate= 716.6kbits/s    frame= 4222 fps= 79 q=32.0 size=   12383kB time=00:02:21.39 bitrate= 717.4kbits/s    frame= 4262 fps= 79 q=32.0 size=   12539kB time=00:02:22.89 bitrate= 718.9kbits/s    frame= 4296 fps= 79 q=32.0 size=   12613kB time=00:02:23.89 bitrate= 718.1kbits/s    frame= 4332 fps= 79 q=32.0 size=   12716kB time=00:02:25.40 bitrate= 716.4kbits/s    frame= 4371 fps= 79 q=32.0 size=   12824kB time=00:02:26.38 bitrate= 717.6kbits/s    frame= 4413 fps= 79 q=32.0 size=   12944kB time=00:02:27.90 bitrate= 716.9kbits/s    frame= 4450 fps= 79 q=32.0 size=   13029kB time=00:02:28.90 bitrate= 716.8kbits/s    frame= 4490 fps= 79 q=32.0 size=   13094kB time=00:02:30.40 bitrate= 713.2kbits/s    frame= 4529 fps= 79 q=32.0 size=   13259kB time=00:02:31.89 bitrate= 715.1kbits/s    frame= 4571 fps= 79 q=32.0 size=   13333kB time=00:02:33.38 bitrate= 712.1kbits/s    frame= 4613 fps= 79 q=32.0 size=   13457kB time=00:02:34.38 bitrate= 714.0kbits/s    frame= 4654 fps= 79 q=32.0 size=   13549kB time=00:02:35.90 bitrate= 711.9kbits/s    frame= 4694 fps= 79 q=32.0 size=   13644kB time=00:02:37.39 bitrate= 710.1kbits/s    frame= 4737 fps= 79 q=32.0 size=   13776kB time=00:02:38.89 bitrate= 710.2kbits/s    frame= 4778 fps= 79 q=32.0 size=   13971kB time=00:02:39.91 bitrate= 715.7kbits/s    frame= 4819 fps= 79 q=32.0 size=   14074kB time=00:02:41.38 bitrate= 714.4kbits/s    frame= 4858 fps= 79 q=32.0 size=   14160kB time=00:02:42.90 bitrate= 712.1kbits/s    frame= 4902 fps= 79 q=32.0 size=   14250kB time=00:02:44.39 bitrate= 710.1kbits/s    frame= 4942 fps= 79 q=32.0 size=   14357kB time=00:02:45.39 bitrate= 711.1kbits/s    frame= 4982 fps= 79 q=32.0 size=   14478kB time=00:02:46.89 bitrate= 710.7kbits/s    frame= 5018 fps= 79 q=32.0 size=   14643kB time=00:02:47.93 bitrate= 714.3kbits/s    frame= 5062 fps= 79 q=32.0 size=   14755kB time=00:02:49.38 bitrate= 713.6kbits/s    frame= 5100 fps= 79 q=32.0 size=   14876kB time=00:02:50.88 bitrate= 713.1kbits/s    frame= 5140 fps= 79 q=32.0 size=   14989kB time=00:02:52.39 bitrate= 712.2kbits/s    frame= 5179 fps= 79 q=32.0 size=   15101kB time=00:02:53.39 bitrate= 713.4kbits/s    frame= 5220 fps= 79 q=32.0 size=   15225kB time=00:02:54.89 bitrate= 713.2kbits/s    frame= 5261 fps= 79 q=32.0 size=   15428kB time=00:02:56.38 bitrate= 716.6kbits/s    frame= 5301 fps= 79 q=32.0 size=   15531kB time=00:02:57.38 bitrate= 717.2kbits/s    frame= 5342 fps= 79 q=32.0 size=   15641kB time=00:02:58.88 bitrate= 716.3kbits/s    frame= 5382 fps= 79 q=32.0 size=   15724kB time=00:03:00.39 bitrate= 714.0kbits/s    frame= 5423 fps= 79 q=32.0 size=   15801kB time=00:03:01.39 bitrate= 713.6kbits/s    frame= 5465 fps= 79 q=32.0 size=   15875kB time=00:03:02.89 bitrate= 711.1kbits/s    frame= 5501 fps= 79 q=32.0 size=   16034kB time=00:03:04.38 bitrate= 712.4kbits/s    frame= 5541 fps= 79 q=32.0 size=   16156kB time=00:03:05.38 bitrate= 713.9kbits/s    frame= 5582 fps= 79 q=32.0 size=   16263kB time=00:03:06.88 bitrate= 712.9kbits/s    frame= 5625 fps= 79 q=32.0 size=   16393kB time=00:03:08.37 bitrate= 712.9kbits/s    frame= 5660 fps= 79 q=33.0 size=   16653kB time=00:03:09.37 bitrate= 720.4kbits/s    frame= 5693 fps= 79 q=33.0 size=   16765kB time=00:03:10.82 bitrate= 719.7kbits/s    frame= 5738 fps= 79 q=33.0 size=   16878kB time=00:03:11.87 bitrate= 720.6kbits/s    frame= 5779 fps= 79 q=33.0 size=   17079kB time=00:03:13.38 bitrate= 723.5kbits/s    frame= 5819 fps= 79 q=33.0 size=   17166kB time=00:03:14.88 bitrate= 721.6kbits/s    frame= 5858 fps= 79 q=33.0 size=   17349kB time=00:03:15.88 bitrate= 725.6kbits/s    frame= 5898 fps= 79 q=33.0 size=   17467kB time=00:03:17.37 bitrate= 724.9kbits/s    frame= 5941 fps= 79 q=33.0 size=   17586kB time=00:03:18.89 bitrate= 724.3kbits/s    frame= 5984 fps= 79 q=33.0 size=   17700kB time=00:03:20.38 bitrate= 723.6kbits/s    frame= 6025 fps= 79 q=33.0 size=   17873kB time=00:03:21.87 bitrate= 725.3kbits/s    frame= 6065 fps= 79 q=33.0 size=   17950kB time=00:03:22.88 bitrate= 724.8kbits/s    frame= 6106 fps= 79 q=33.0 size=   18041kB time=00:03:24.37 bitrate= 723.2kbits/s    frame= 6147 fps= 79 q=33.0 size=   18149kB time=00:03:25.88 bitrate= 722.1kbits/s    frame= 6185 fps= 79 q=33.0 size=   18230kB time=00:03:26.86 bitrate= 721.9kbits/s    frame= 6224 fps= 79 q=33.0 size=   18329kB time=00:03:28.38 bitrate= 720.5kbits/s    frame= 6269 fps= 79 q=33.0 size=   18520kB time=00:03:29.87 bitrate= 722.9kbits/s    frame= 6307 fps= 79 q=33.0 size=   18608kB time=00:03:31.24 bitrate= 721.6kbits/s    frame= 6351 fps= 79 q=33.0 size=   18724kB time=00:03:32.37 bitrate= 722.2kbits/s    frame= 6390 fps= 79 q=33.0 size=   18855kB time=00:03:33.86 bitrate= 722.2kbits/s    frame= 6430 fps= 79 q=33.0 size=   18954kB time=00:03:35.38 bitrate= 720.9kbits/s    frame= 6471 fps= 79 q=30.0 size=   19063kB time=00:03:36.38 bitrate= 721.7kbits/s    frame= 6508 fps= 79 q=33.0 size=   19294kB time=00:03:37.87 bitrate= 725.4kbits/s    frame= 6552 fps= 79 q=33.0 size=   19396kB time=00:03:39.37 bitrate= 724.3kbits/s    frame= 6592 fps= 79 q=33.0 size=   19464kB time=00:03:40.39 bitrate= 723.5kbits/s    frame= 6634 fps= 79 q=33.0 size=   19590kB time=00:03:41.86 bitrate= 723.3kbits/s    frame= 6671 fps= 79 q=33.0 size=   19663kB time=00:03:43.38 bitrate= 721.1kbits/s    frame= 6710 fps= 79 q=33.0 size=   19758kB time=00:03:44.36 bitrate= 721.4kbits/s    frame= 6749 fps= 79 q=33.0 size=   19854kB time=00:03:45.87 bitrate= 720.1kbits/s    frame= 6789 fps= 79 q=33.0 size=   19937kB time=00:03:47.37 bitrate= 718.3kbits/s    frame= 6833 fps= 79 q=33.0 size=   20006kB time=00:03:48.86 bitrate= 716.1kbits/s    frame= 6874 fps= 79 q=33.0 size=   20131kB time=00:03:49.86 bitrate= 717.4kbits/s    frame= 6915 fps= 79 q=32.0 size=   20199kB time=00:03:51.36 bitrate= 715.2kbits/s    frame= 6956 fps= 79 q=32.0 size=   20285kB time=00:03:52.87 bitrate= 713.6kbits/s    frame= 6995 fps= 79 q=32.0 size=   20353kB time=00:03:53.89 bitrate= 712.8kbits/s    frame= 7036 fps= 79 q=32.0 size=   20444kB time=00:03:55.37 bitrate= 711.5kbits/s    frame= 7074 fps= 79 q=32.0 size=   20541kB time=00:03:56.86 bitrate= 710.4kbits/s    frame= 7114 fps= 79 q=32.0 size=   20637kB time=00:03:57.86 bitrate= 710.7kbits/s    frame= 7155 fps= 79 q=32.0 size=   20806kB time=00:03:59.36 bitrate= 712.1kbits/s    frame= 7198 fps= 79 q=32.0 size=   20900kB time=00:04:00.87 bitrate= 710.8kbits/s    frame= 7239 fps= 79 q=32.0 size=   21001kB time=00:04:02.36 bitrate= 709.8kbits/s    frame= 7280 fps= 79 q=32.0 size=   21106kB time=00:04:03.73 bitrate= 709.4kbits/s    frame= 7318 fps= 79 q=32.0 size=   21216kB time=00:04:04.86 bitrate= 709.8kbits/s    frame= 7355 fps= 79 q=32.0 size=   21312kB time=00:04:05.88 bitrate= 710.0kbits/s    frame= 7399 fps= 79 q=32.0 size=   21466kB time=00:04:07.36 bitrate= 710.9kbits/s    frame= 7442 fps= 79 q=32.0 size=   21538kB time=00:04:08.85 bitrate= 709.0kbits/s    frame= 7481 fps= 79 q=32.0 size=   21623kB time=00:04:10.36 bitrate= 707.5kbits/s    frame= 7520 fps= 79 q=32.0 size=   21698kB time=00:04:11.39 bitrate= 707.1kbits/s    frame= 7561 fps= 79 q=31.0 size=   21788kB time=00:04:12.86 bitrate= 705.9kbits/s    frame= 7600 fps= 79 q=31.0 size=   21906kB time=00:04:14.35 bitrate= 705.5kbits/s    frame= 7638 fps= 79 q=32.0 size=   22077kB time=00:04:15.36 bitrate= 708.2kbits/s    frame= 7678 fps= 79 q=31.0 size=   22148kB time=00:04:16.85 bitrate= 706.4kbits/s    frame= 7718 fps= 79 q=31.0 size=   22209kB time=00:04:18.36 bitrate= 704.2kbits/s    frame= 7757 fps= 79 q=31.0 size=   22303kB time=00:04:19.37 bitrate= 704.4kbits/s    frame= 7794 fps= 79 q=31.0 size=   22384kB time=00:04:20.86 bitrate= 702.9kbits/s    frame= 7831 fps= 79 q=31.0 size=   22478kB time=00:04:21.86 bitrate= 703.2kbits/s    frame= 7871 fps= 79 q=31.0 size=   22721kB time=00:04:23.36 bitrate= 706.8kbits/s    frame= 7912 fps= 79 q=31.0 size=   22834kB time=00:04:24.85 bitrate= 706.3kbits/s    frame= 7951 fps= 79 q=31.0 size=   22941kB time=00:04:25.85 bitrate= 706.9kbits/s    frame= 7991 fps= 79 q=31.0 size=   23041kB time=00:04:27.34 bitrate= 706.0kbits/s    frame= 8030 fps= 79 q=31.0 size=   23136kB time=00:04:28.37 bitrate= 706.2kbits/s    frame= 8071 fps= 79 q=31.0 size=   23266kB time=00:04:29.86 bitrate= 706.3kbits/s    frame= 8109 fps= 79 q=31.0 size=   23404kB time=00:04:31.36 bitrate= 706.5kbits/s    frame= 8154 fps= 79 q=32.0 size=   23619kB time=00:04:32.85 bitrate= 709.1kbits/s    frame= 8193 fps= 79 q=32.0 size=   23737kB time=00:04:33.85 bitrate= 710.1kbits/s    frame= 8235 fps= 79 q=32.0 size=   23839kB time=00:04:35.34 bitrate= 709.2kbits/s    frame= 8274 fps= 79 q=32.0 size=   23938kB time=00:04:36.86 bitrate= 708.3kbits/s    frame= 8316 fps= 79 q=32.0 size=   24042kB time=00:04:38.35 bitrate= 707.5kbits/s    frame= 8355 fps= 79 q=32.0 size=   24138kB time=00:04:39.36 bitrate= 707.8kbits/s    frame= 8394 fps= 79 q=32.0 size=   24353kB time=00:04:40.85 bitrate= 710.3kbits/s    frame= 8434 fps= 79 q=32.0 size=   24497kB time=00:04:41.85 bitrate= 712.0kbits/s    frame= 8471 fps= 79 q=32.0 size=   24602kB time=00:04:43.34 bitrate= 711.3kbits/s    frame= 8509 fps= 79 q=32.0 size=   24710kB time=00:04:44.39 bitrate= 711.8kbits/s    frame= 8552 fps= 79 q=32.0 size=   24812kB time=00:04:45.84 bitrate= 711.1kbits/s    frame= 8590 fps= 79 q=32.0 size=   24899kB time=00:04:47.36 bitrate= 709.8kbits/s    frame= 8629 fps= 79 q=32.0 size=   25057kB time=00:04:48.36 bitrate= 711.8kbits/s    frame= 8671 fps= 79 q=32.0 size=   25172kB time=00:04:49.85 bitrate= 711.4kbits/s    frame= 8706 fps= 79 q=32.0 size=   25298kB time=00:04:51.34 bitrate= 711.3kbits/s    frame= 8744 fps= 79 q=33.0 size=   25604kB time=00:04:52.35 bitrate= 717.5kbits/s    frame= 8779 fps= 79 q=33.0 size=   25676kB time=00:04:53.61 bitrate= 716.4kbits/s    frame= 8815 fps= 79 q=32.0 size=   25754kB time=00:04:54.84 bitrate= 715.6kbits/s    frame= 8849 fps= 79 q=32.0 size=   25845kB time=00:04:55.85 bitrate= 715.6kbits/s    frame= 8890 fps= 79 q=33.0 size=   26045kB time=00:04:57.34 bitrate= 717.5kbits/s    frame= 8929 fps= 79 q=33.0 size=   26121kB time=00:04:58.34 bitrate= 717.2kbits/s    frame= 8971 fps= 79 q=32.0 size=   26206kB time=00:04:59.84 bitrate= 716.0kbits/s    frame= 9012 fps= 79 q=32.0 size=   26292kB time=00:05:01.35 bitrate= 714.7kbits/s    frame= 9048 fps= 79 q=32.0 size=   26370kB time=00:05:02.84 bitrate= 713.3kbits/s    frame= 9091 fps= 79 q=32.0 size=   26445kB time=00:05:03.85 bitrate= 713.0kbits/s    frame= 9128 fps= 79 q=32.0 size=   26628kB time=00:05:05.34 bitrate= 714.4kbits/s    frame= 9168 fps= 79 q=32.0 size=   26693kB time=00:05:06.83 bitrate= 712.7kbits/s    frame= 9211 fps= 79 q=32.0 size=   26774kB time=00:05:07.84 bitrate= 712.5kbits/s    frame= 9252 fps= 79 q=32.0 size=   26848kB time=00:05:09.33 bitrate= 711.0kbits/s    frame= 9292 fps= 79 q=32.0 size=   26914kB time=00:05:10.84 bitrate= 709.3kbits/s    frame= 9332 fps= 79 q=32.0 size=   26994kB time=00:05:11.89 bitrate= 709.0kbits/s    frame= 9372 fps= 79 q=32.0 size=   27215kB time=00:05:13.34 bitrate= 711.5kbits/s    frame= 9411 fps= 79 q=32.0 size=   27330kB time=00:05:14.83 bitrate= 711.1kbits/s    frame= 9446 fps= 79 q=32.0 size=   27429kB time=00:05:15.84 bitrate= 711.4kbits/s    frame= 9482 fps= 79 q=32.0 size=   27560kB time=00:05:16.86 bitrate= 712.5kbits/s    frame= 9524 fps= 79 q=32.0 size=   27693kB time=00:05:18.33 bitrate= 712.6kbits/s    frame= 9564 fps= 79 q=32.0 size=   27827kB time=00:05:19.82 bitrate= 712.8kbits/s    frame= 9602 fps= 79 q=32.0 size=   28040kB time=00:05:20.85 bitrate= 715.9kbits/s    frame= 9641 fps= 79 q=32.0 size=   28158kB time=00:05:22.34 bitrate= 715.6kbits/s    frame= 9677 fps= 79 q=33.0 size=   28277kB time=00:05:23.37 bitrate= 716.3kbits/s    frame= 9715 fps= 79 q=33.0 size=   28388kB time=00:05:24.84 bitrate= 715.9kbits/s    frame= 9752 fps= 79 q=33.0 size=   28508kB time=00:05:25.84 bitrate= 716.7kbits/s    frame= 9796 fps= 79 q=32.0 size=   28585kB time=00:05:27.33 bitrate= 715.4kbits/s    frame= 9837 fps= 79 q=32.0 size=   28633kB time=00:05:28.83 bitrate= 713.3kbits/s    frame= 9875 fps= 79 q=32.0 size=   28707kB time=00:05:30.34 bitrate= 711.9kbits/s    frame= 9915 fps= 79 q=32.0 size=   28771kB time=00:05:31.32 bitrate= 711.4kbits/s    frame= 9954 fps= 79 q=32.0 size=   28859kB time=00:05:32.84 bitrate= 710.3kbits/s    frame= 9995 fps= 79 q=32.0 size=   28987kB time=00:05:34.33 bitrate= 710.3kbits/s    frame=10037 fps= 79 q=32.0 size=   29025kB time=00:05:35.33 bitrate= 709.1kbits/s    frame=10076 fps= 79 q=31.0 size=   29095kB time=00:05:36.83 bitrate= 707.6kbits/s    frame=10117 fps= 79 q=31.0 size=   29138kB time=00:05:38.32 bitrate= 705.5kbits/s    frame=10157 fps= 79 q=31.0 size=   29207kB time=00:05:39.32 bitrate= 705.1kbits/s    frame=10197 fps= 79 q=31.0 size=   29289kB time=00:05:40.84 bitrate= 704.0kbits/s    frame=10235 fps= 79 q=31.0 size=   29436kB time=00:05:42.33 bitrate= 704.4kbits/s    frame=10277 fps= 79 q=31.0 size=   29522kB time=00:05:43.33 bitrate= 704.4kbits/s    frame=10313 fps= 79 q=31.0 size=   29587kB time=00:05:44.83 bitrate= 702.9kbits/s    frame=10352 fps= 79 q=31.0 size=   29662kB time=00:05:46.21 bitrate= 701.8kbits/s    frame=10393 fps= 79 q=31.0 size=   29758kB time=00:05:47.32 bitrate= 701.9kbits/s    frame=10432 fps= 79 q=30.0 size=   29839kB time=00:05:48.82 bitrate= 700.8kbits/s    frame=10472 fps= 79 q=30.0 size=   29922kB time=00:05:49.84 bitrate= 700.7kbits/s    frame=10510 fps= 79 q=30.0 size=   30079kB time=00:05:51.33 bitrate= 701.3kbits/s    frame=10551 fps= 79 q=30.0 size=   30153kB time=00:05:52.83 bitrate= 700.1kbits/s    frame=10590 fps= 79 q=30.0 size=   30206kB time=00:05:53.83 bitrate= 699.3kbits/s    frame=10630 fps= 79 q=30.0 size=   30261kB time=00:05:55.32 bitrate= 697.7kbits/s    frame=10666 fps= 79 q=30.0 size=   30327kB time=00:05:56.35 bitrate= 697.2kbits/s    frame=10705 fps= 79 q=30.0 size=   30421kB time=00:05:57.82 bitrate= 696.5kbits/s    frame=10741 fps= 79 q=30.0 size=   30555kB time=00:05:58.84 bitrate= 697.5kbits/s    frame=10783 fps= 79 q=30.0 size=   30653kB time=00:06:00.32 bitrate= 696.9kbits/s    frame=10823 fps= 79 q=30.0 size=   30751kB time=00:06:01.83 bitrate= 696.2kbits/s    frame=10859 fps= 79 q=30.0 size=   30822kB time=00:06:02.81 bitrate= 695.9kbits/s    frame=10899 fps= 79 q=29.0 size=   30895kB time=00:06:04.33 bitrate= 694.7kbits/s    frame=10940 fps= 79 q=29.0 size=   30966kB time=00:06:05.82 bitrate= 693.4kbits/s    frame=10977 fps= 79 q=29.0 size=   31104kB time=00:06:06.82 bitrate= 694.6kbits/s    frame=11013 fps= 79 q=29.0 size=   31197kB time=00:06:08.32 bitrate= 693.9kbits/s    frame=11051 fps= 79 q=29.0 size=   31293kB time=00:06:09.32 bitrate= 694.1kbits/s    frame=11093 fps= 79 q=29.0 size=   31389kB time=00:06:10.81 bitrate= 693.4kbits/s    frame=11131 fps= 79 q=29.0 size=   31518kB time=00:06:11.84 bitrate= 694.4kbits/s    frame=11168 fps= 79 q=29.0 size=   31650kB time=00:06:13.31 bitrate= 694.5kbits/s    frame=11205 fps= 79 q=29.0 size=   31736kB time=00:06:14.31 bitrate= 694.6kbits/s    frame=11247 fps= 79 q=29.0 size=   31902kB time=00:06:15.82 bitrate= 695.4kbits/s    frame=11285 fps= 79 q=29.0 size=   31979kB time=00:06:17.32 bitrate= 694.3kbits/s    frame=11324 fps= 79 q=29.0 size=   32053kB time=00:06:18.34 bitrate= 694.0kbits/s    frame=11364 fps= 79 q=29.0 size=   32184kB time=00:06:19.81 bitrate= 694.2kbits/s    frame=11400 fps= 79 q=29.0 size=   32281kB time=00:06:21.31 bitrate= 693.5kbits/s    frame=11439 fps= 79 q=29.0 size=   32408kB time=00:06:22.31 bitrate= 694.4kbits/s    frame=11474 fps= 79 q=29.0 size=   32598kB time=00:06:23.33 bitrate= 696.6kbits/s    frame=11513 fps= 79 q=30.0 size=   32743kB time=00:06:24.81 bitrate= 697.0kbits/s    frame=11549 fps= 79 q=30.0 size=   32856kB time=00:06:25.89 bitrate= 697.5kbits/s    frame=11585 fps= 79 q=30.0 size=   32968kB time=00:06:27.32 bitrate= 697.3kbits/s    frame=11624 fps= 79 q=30.0 size=   33088kB time=00:06:28.30 bitrate= 698.0kbits/s    frame=11663 fps= 79 q=30.0 size=   33208kB time=00:06:29.82 bitrate= 697.9kbits/s    frame=11700 fps= 79 q=30.0 size=   33320kB time=00:06:31.31 bitrate= 697.5kbits/s    frame=11743 fps= 79 q=30.0 size=   33505kB time=00:06:32.32 bitrate= 699.6kbits/s    frame=11784 fps= 79 q=30.0 size=   33586kB time=00:06:33.81 bitrate= 698.6kbits/s    frame=11825 fps= 79 q=30.0 size=   33662kB time=00:06:35.30 bitrate= 697.6kbits/s    frame=11866 fps= 79 q=30.0 size=   33774kB time=00:06:36.82 bitrate= 697.2kbits/s    frame=11906 fps= 79 q=30.0 size=   33894kB time=00:06:37.82 bitrate= 698.0kbits/s    frame=11945 fps= 79 q=30.0 size=   34018kB time=00:06:39.31 bitrate= 697.9kbits/s    frame=11977 fps= 79 q=30.0 size=   34192kB time=00:06:40.32 bitrate= 699.7kbits/s    frame=12014 fps= 79 q=30.0 size=   34289kB time=00:06:41.34 bitrate= 699.9kbits/s    frame=12054 fps= 79 q=30.0 size=   34376kB time=00:06:42.81 bitrate= 699.1kbits/s    frame=12093 fps= 79 q=30.0 size=   34449kB time=00:06:44.30 bitrate= 698.0kbits/s    frame=12133 fps= 79 q=29.0 size=   34529kB time=00:06:45.31 bitrate= 697.9kbits/s    frame=12172 fps= 79 q=29.0 size=   34654kB time=00:06:46.80 bitrate= 697.8kbits/s    frame=12211 fps= 79 q=29.0 size=   34749kB time=00:06:48.32 bitrate= 697.2kbits/s    frame=12247 fps= 78 q=30.0 size=   34916kB time=00:06:49.30 bitrate= 698.8kbits/s    frame=12284 fps= 78 q=30.0 size=   35024kB time=00:06:50.32 bitrate= 699.2kbits/s    frame=12327 fps= 78 q=30.0 size=   35118kB time=00:06:51.81 bitrate= 698.6kbits/s    frame=12367 fps= 78 q=29.0 size=   35183kB time=00:06:53.31 bitrate= 697.3kbits/s    frame=12406 fps= 78 q=29.0 size=   35256kB time=00:06:54.80 bitrate= 696.3kbits/s    frame=12443 fps= 78 q=29.0 size=   35330kB time=00:06:55.80 bitrate= 696.1kbits/s    frame=12478 fps= 78 q=29.0 size=   35519kB time=00:06:56.81 bitrate= 698.1kbits/s    frame=12516 fps= 78 q=29.0 size=   35602kB time=00:06:58.30 bitrate= 697.2kbits/s    frame=12557 fps= 78 q=29.0 size=   35717kB time=00:06:59.79 bitrate= 697.0kbits/s    frame=12593 fps= 78 q=29.0 size=   35839kB time=00:07:00.80 bitrate= 697.7kbits/s    frame=12629 fps= 78 q=29.0 size=   35924kB time=00:07:01.82 bitrate= 697.7kbits/s    frame=12668 fps= 78 q=29.0 size=   35990kB time=00:07:03.29 bitrate= 696.5kbits/s    frame=12707 fps= 78 q=29.0 size=   36075kB time=00:07:04.81 bitrate= 695.7kbits/s    frame=12744 fps= 78 q=29.0 size=   36268kB time=00:07:05.81 bitrate= 697.8kbits/s    frame=12784 fps= 78 q=29.0 size=   36341kB time=00:07:07.30 bitrate= 696.7kbits/s    frame=12823 fps= 78 q=29.0 size=   36450kB time=00:07:08.30 bitrate= 697.1kbits/s    frame=12861 fps= 78 q=29.0 size=   36552kB time=00:07:09.80 bitrate= 696.7kbits/s    frame=12897 fps= 78 q=29.0 size=   36676kB time=00:07:10.80 bitrate= 697.4kbits/s    frame=12937 fps= 78 q=29.0 size=   36793kB time=00:07:12.29 bitrate= 697.2kbits/s    frame=12972 fps= 78 q=29.0 size=   36901kB time=00:07:13.30 bitrate= 697.7kbits/s    frame=13014 fps= 78 q=29.0 size=   37114kB time=00:07:14.79 bitrate= 699.3kbits/s    frame=13053 fps= 78 q=29.0 size=   37225kB time=00:07:16.30 bitrate= 698.9kbits/s    frame=13088 fps= 78 q=29.0 size=   37311kB time=00:07:17.29 bitrate= 699.0kbits/s    frame=13126 fps= 78 q=29.0 size=   37439kB time=00:07:18.80 bitrate= 698.9kbits/s    frame=13164 fps= 78 q=29.0 size=   37549kB time=00:07:19.80 bitrate= 699.4kbits/s    frame=13203 fps= 78 q=29.0 size=   37617kB time=00:07:21.30 bitrate= 698.3kbits/s    frame=13241 fps= 78 q=30.0 size=   37783kB time=00:07:22.30 bitrate= 699.8kbits/s    frame=13279 fps= 78 q=29.0 size=   37849kB time=00:07:23.79 bitrate= 698.7kbits/s    frame=13322 fps= 78 q=29.0 size=   37931kB time=00:07:25.29 bitrate= 697.8kbits/s    frame=13359 fps= 78 q=29.0 size=   38048kB time=00:07:26.29 bitrate= 698.4kbits/s    frame=13400 fps= 78 q=29.0 size=   38146kB time=00:07:27.78 bitrate= 697.9kbits/s    frame=13437 fps= 78 q=29.0 size=   38250kB time=00:07:28.78 bitrate= 698.2kbits/s    frame=13474 fps= 78 q=29.0 size=   38409kB time=00:07:30.30 bitrate= 698.7kbits/s    frame=13505 fps= 78 q=30.0 size=   38664kB time=00:07:31.30 bitrate= 701.8kbits/s    frame=13532 fps= 78 q=30.0 size=   38865kB time=00:07:32.28 bitrate= 703.9kbits/s    frame=13565 fps= 78 q=31.0 size=   39087kB time=00:07:33.29 bitrate= 706.4kbits/s    frame=13595 fps= 78 q=31.0 size=   39268kB time=00:07:34.29 bitrate= 708.1kbits/s    frame=13626 fps= 78 q=31.0 size=   39486kB time=00:07:35.29 bitrate= 710.5kbits/s    frame=13653 fps= 78 q=31.0 size=   39658kB time=00:07:36.29 bitrate= 712.0kbits/s    frame=13681 fps= 78 q=32.0 size=   39823kB time=00:07:37.30 bitrate= 713.4kbits/s    frame=13712 fps= 78 q=32.0 size=   40010kB time=00:07:38.30 bitrate= 715.2kbits/s    frame=13747 fps= 78 q=32.0 size=   40240kB time=00:07:39.28 bitrate= 717.7kbits/s    frame=13778 fps= 78 q=32.0 size=   40395kB time=00:07:40.28 bitrate= 718.9kbits/s    frame=13810 fps= 78 q=33.0 size=   40595kB time=00:07:41.29 bitrate= 720.9kbits/s    frame=13841 fps= 78 q=33.0 size=   40734kB time=00:07:42.31 bitrate= 721.8kbits/s    frame=13875 fps= 78 q=33.0 size=   40885kB time=00:07:43.78 bitrate= 722.2kbits/s    frame=13912 fps= 78 q=33.0 size=   41047kB time=00:07:44.78 bitrate= 723.5kbits/s    frame=13950 fps= 78 q=33.0 size=   41191kB time=00:07:46.28 bitrate= 723.7kbits/s    frame=13982 fps= 77 q=33.0 size=   41306kB time=00:07:47.28 bitrate= 724.1kbits/s    frame=14014 fps= 77 q=33.0 size=   41452kB time=00:07:48.28 bitrate= 725.1kbits/s    frame=14048 fps= 77 q=33.0 size=   41602kB time=00:07:49.29 bitrate= 726.2kbits/s    frame=14079 fps= 77 q=34.0 size=   41744kB time=00:07:50.29 bitrate= 727.1kbits/s    frame=14110 fps= 77 q=34.0 size=   41868kB time=00:07:51.29 bitrate= 727.7kbits/s    frame=14141 fps= 77 q=34.0 size=   42008kB time=00:07:52.29 bitrate= 728.6kbits/s    frame=14174 fps= 77 q=34.0 size=   42164kB time=00:07:53.79 bitrate= 729.0kbits/s    frame=14204 fps= 77 q=34.0 size=   42304kB time=00:07:54.79 bitrate= 729.9kbits/s    frame=14239 fps= 77 q=34.0 size=   42435kB time=00:07:55.79 bitrate= 730.6kbits/s    frame=14278 fps= 77 q=34.0 size=   42593kB time=00:07:57.29 bitrate= 731.0kbits/s    frame=14318 fps= 77 q=34.0 size=   42639kB time=00:07:58.29 bitrate= 730.3kbits/s    frame=14359 fps= 77 q=34.0 size=   42699kB time=00:07:59.78 bitrate= 729.1kbits/s    frame=14401 fps= 77 q=34.0 size=   42758kB time=00:08:01.28 bitrate= 727.8kbits/s    frame=14437 fps= 77 q=34.0 size=   42826kB time=00:08:02.28 bitrate= 727.4kbits/s    frame=14478 fps= 77 q=34.0 size=   42917kB time=00:08:03.77 bitrate= 726.7kbits/s    frame=14516 fps= 77 q=34.0 size=   43037kB time=00:08:04.80 bitrate= 727.2kbits/s    frame=14556 fps= 77 q=34.0 size=   43119kB time=00:08:06.29 bitrate= 726.4kbits/s    frame=14593 fps= 77 q=34.0 size=   43182kB time=00:08:07.78 bitrate= 725.2kbits/s    frame=14634 fps= 77 q=33.0 size=   43245kB time=00:08:08.78 bitrate= 724.8kbits/s    frame=14673 fps= 77 q=33.0 size=   43327kB time=00:08:10.28 bitrate= 723.9kbits/s    frame=14714 fps= 77 q=33.0 size=   43406kB time=00:08:11.77 bitrate= 723.1kbits/s    frame=14754 fps= 77 q=33.0 size=   43535kB time=00:08:12.77 bitrate= 723.7kbits/s    frame=14795 fps= 77 q=33.0 size=   43613kB time=00:08:14.27 bitrate= 722.8kbits/s    frame=14833 fps= 77 q=33.0 size=   43687kB time=00:08:15.78 bitrate= 721.8kbits/s    frame=14875 fps= 77 q=33.0 size=   43779kB time=00:08:16.78 bitrate= 721.9kbits/s    frame=14913 fps= 77 q=33.0 size=   43857kB time=00:08:18.28 bitrate= 721.0kbits/s    frame=14954 fps= 77 q=33.0 size=   43940kB time=00:08:19.77 bitrate= 720.2kbits/s    frame=14988 fps= 77 q=33.0 size=   44002kB time=00:08:20.77 bitrate= 719.8kbits/s    frame=15030 fps= 77 q=33.0 size=   44140kB time=00:08:22.27 bitrate= 719.9kbits/s    frame=15069 fps= 77 q=33.0 size=   44218kB time=00:08:23.27 bitrate= 719.8kbits/s    frame=15110 fps= 77 q=33.0 size=   44306kB time=00:08:24.76 bitrate= 719.0kbits/s    frame=15151 fps= 77 q=33.0 size=   44375kB time=00:08:26.28 bitrate= 718.0kbits/s    frame=15190 fps= 77 q=33.0 size=   44458kB time=00:08:27.60 bitrate= 717.5kbits/s    frame=15232 fps= 77 q=32.0 size=   44549kB time=00:08:28.77 bitrate= 717.3kbits/s    frame=15277 fps= 77 q=33.0 size=   44712kB time=00:08:30.27 bitrate= 717.8kbits/s    frame=15317 fps= 77 q=32.0 size=   44777kB time=00:08:31.76 bitrate= 716.8kbits/s    frame=15354 fps= 77 q=32.0 size=   44909kB time=00:08:32.76 bitrate= 717.5kbits/s    frame=15390 fps= 77 q=32.0 size=   45026kB time=00:08:34.28 bitrate= 717.2kbits/s    frame=15426 fps= 77 q=33.0 size=   45142kB time=00:08:35.28 bitrate= 717.7kbits/s    frame=15460 fps= 77 q=33.0 size=   45257kB time=00:08:36.39 bitrate= 718.0kbits/s    frame=15498 fps= 77 q=33.0 size=   45383kB time=00:08:37.78 bitrate= 718.0kbits/s    frame=15535 fps= 77 q=33.0 size=   45526kB time=00:08:38.97 bitrate= 718.6kbits/s    frame=15575 fps= 77 q=33.0 size=   45710kB time=00:08:40.27 bitrate= 719.7kbits/s    frame=15612 fps= 77 q=33.0 size=   45826kB time=00:08:41.77 bitrate= 719.5kbits/s    frame=15646 fps= 77 q=33.0 size=   45939kB time=00:08:42.77 bitrate= 719.9kbits/s    frame=15685 fps= 77 q=33.0 size=   46137kB time=00:08:43.79 bitrate= 721.6kbits/s    frame=15726 fps= 77 q=33.0 size=   46251kB time=00:08:45.26 bitrate= 721.3kbits/s    frame=15767 fps= 77 q=33.0 size=   46351kB time=00:08:46.76 bitrate= 720.8kbits/s    frame=15806 fps= 77 q=33.0 size=   46423kB time=00:08:48.27 bitrate= 719.9kbits/s    frame=15848 fps= 77 q=33.0 size=   46492kB time=00:08:49.28 bitrate= 719.6kbits/s    frame=15889 fps= 77 q=33.0 size=   46552kB time=00:08:50.77 bitrate= 718.5kbits/s    frame=15928 fps= 77 q=33.0 size=   46700kB time=00:08:52.26 bitrate= 718.8kbits/s    frame=15967 fps= 77 q=33.0 size=   46825kB time=00:08:53.26 bitrate= 719.3kbits/s    frame=16007 fps= 77 q=33.0 size=   46936kB time=00:08:54.76 bitrate= 719.0kbits/s    frame=16047 fps= 77 q=33.0 size=   47063kB time=00:08:56.27 bitrate= 718.9kbits/s    frame=16087 fps= 77 q=33.0 size=   47165kB time=00:08:57.25 bitrate= 719.2kbits/s    frame=16128 fps= 77 q=33.0 size=   47235kB time=00:08:58.77 bitrate= 718.2kbits/s    frame=16163 fps= 77 q=33.0 size=   47289kB time=00:08:59.79 bitrate= 717.7kbits/s    frame=16204 fps= 77 q=33.0 size=   47435kB time=00:09:01.26 bitrate= 717.9kbits/s    frame=16243 fps= 77 q=33.0 size=   47502kB time=00:09:02.76 bitrate= 717.0kbits/s    frame=16280 fps= 77 q=33.0 size=   47604kB time=00:09:03.76 bitrate= 717.2kbits/s    frame=16321 fps= 77 q=32.0 size=   47690kB time=00:09:05.25 bitrate= 716.5kbits/s    frame=16358 fps= 77 q=32.0 size=   47798kB time=00:09:06.60 bitrate= 716.4kbits/s    frame=16396 fps= 77 q=32.0 size=   47890kB time=00:09:07.75 bitrate= 716.2kbits/s    frame=16430 fps= 77 q=33.0 size=   48097kB time=00:09:08.75 bitrate= 718.0kbits/s    frame=16465 fps= 77 q=33.0 size=   48196kB time=00:09:10.27 bitrate= 717.5kbits/s    frame=16505 fps= 77 q=33.0 size=   48299kB time=00:09:11.25 bitrate= 717.8kbits/s    frame=16541 fps= 77 q=33.0 size=   48378kB time=00:09:12.76 bitrate= 717.0kbits/s    frame=16578 fps= 77 q=32.0 size=   48442kB time=00:09:13.77 bitrate= 716.6kbits/s    frame=16621 fps= 77 q=32.0 size=   48510kB time=00:09:15.26 bitrate= 715.7kbits/s    frame=16657 fps= 77 q=29.0 size=   48565kB time=00:09:16.26 bitrate= 715.2kbits/s    frame=16698 fps= 77 q=32.0 size=   48764kB time=00:09:17.76 bitrate= 716.2kbits/s    frame=16737 fps= 77 q=32.0 size=   48852kB time=00:09:19.25 bitrate= 715.6kbits/s    frame=16772 fps= 77 q=32.0 size=   48952kB time=00:09:20.25 bitrate= 715.8kbits/s    frame=16808 fps= 77 q=32.0 size=   49036kB time=00:09:21.25 bitrate= 715.7kbits/s    frame=16847 fps= 77 q=32.0 size=   49121kB time=00:09:22.75 bitrate= 715.1kbits/s    frame=16886 fps= 77 q=32.0 size=   49190kB time=00:09:24.26 bitrate= 714.1kbits/s    frame=16925 fps= 77 q=32.0 size=   49351kB time=00:09:25.24 bitrate= 715.2kbits/s    frame=16964 fps= 77 q=32.0 size=   49445kB time=00:09:26.76 bitrate= 714.7kbits/s    frame=17000 fps= 77 q=32.0 size=   49523kB time=00:09:27.76 bitrate= 714.5kbits/s    frame=17037 fps= 77 q=32.0 size=   49629kB time=00:09:29.25 bitrate= 714.2kbits/s    frame=17073 fps= 77 q=32.0 size=   49736kB time=00:09:30.26 bitrate= 714.5kbits/s    frame=17113 fps= 77 q=32.0 size=   49826kB time=00:09:31.75 bitrate= 713.9kbits/s    frame=17153 fps= 77 q=32.0 size=   49890kB time=00:09:32.77 bitrate= 713.5kbits/s    frame=17190 fps= 77 q=32.0 size=   50029kB time=00:09:34.25 bitrate= 713.7kbits/s    frame=17229 fps= 77 q=32.0 size=   50092kB time=00:09:35.74 bitrate= 712.7kbits/s    frame=17270 fps= 77 q=32.0 size=   50159kB time=00:09:36.74 bitrate= 712.4kbits/s    frame=17309 fps= 77 q=32.0 size=   50243kB time=00:09:38.26 bitrate= 711.8kbits/s    frame=17347 fps= 77 q=32.0 size=   50361kB time=00:09:39.26 bitrate= 712.2kbits/s    frame=17386 fps= 77 q=32.0 size=   50471kB time=00:09:40.75 bitrate= 711.9kbits/s    frame=17425 fps= 77 q=32.0 size=   50664kB time=00:09:42.25 bitrate= 712.8kbits/s    frame=17466 fps= 77 q=32.0 size=   50744kB time=00:09:43.25 bitrate= 712.7kbits/s    frame=17506 fps= 77 q=32.0 size=   50819kB time=00:09:44.74 bitrate= 711.9kbits/s    frame=17547 fps= 77 q=32.0 size=   50885kB time=00:09:46.26 bitrate= 711.0kbits/s    frame=17587 fps= 77 q=32.0 size=   50951kB time=00:09:47.24 bitrate= 710.8kbits/s    frame=17626 fps= 77 q=31.0 size=   51012kB time=00:09:48.75 bitrate= 709.8kbits/s    frame=17661 fps= 77 q=31.0 size=   51070kB time=00:09:49.76 bitrate= 709.4kbits/s    frame=17696 fps= 77 q=31.0 size=   51255kB time=00:09:51.25 bitrate= 710.2kbits/s    frame=17732 fps= 77 q=31.0 size=   51350kB time=00:09:52.25 bitrate= 710.3kbits/s    frame=17772 fps= 77 q=32.0 size=   51501kB time=00:09:53.74 bitrate= 710.6kbits/s    frame=17810 fps= 77 q=32.0 size=   51618kB time=00:09:54.75 bitrate= 711.0kbits/s    frame=17847 fps= 77 q=32.0 size=   51710kB time=00:09:56.24 bitrate= 710.5kbits/s    frame=17886 fps= 77 q=31.0 size=   51789kB time=00:09:57.24 bitrate= 710.3kbits/s    frame=17928 fps= 77 q=32.0 size=   51953kB time=00:09:58.74 bitrate= 710.8kbits/s    frame=17965 fps= 77 q=31.0 size=   52021kB time=00:10:00.25 bitrate= 710.0kbits/s    frame=18004 fps= 77 q=31.0 size=   52106kB time=00:10:01.23 bitrate= 710.0kbits/s    frame=18043 fps= 77 q=31.0 size=   52237kB time=00:10:02.75 bitrate= 710.0kbits/s    frame=18083 fps= 77 q=31.0 size=   52338kB time=00:10:04.24 bitrate= 709.6kbits/s    frame=18122 fps= 77 q=31.0 size=   52473kB time=00:10:05.24 bitrate= 710.2kbits/s    frame=18158 fps= 77 q=31.0 size=   52582kB time=00:10:06.74 bitrate= 709.9kbits/s    frame=18196 fps= 77 q=32.0 size=   52772kB time=00:10:07.74 bitrate= 711.3kbits/s    frame=18233 fps= 77 q=32.0 size=   52847kB time=00:10:09.23 bitrate= 710.6kbits/s    frame=18275 fps= 77 q=31.0 size=   52921kB time=00:10:10.24 bitrate= 710.4kbits/s    frame=18311 fps= 77 q=31.0 size=   52989kB time=00:10:11.73 bitrate= 709.6kbits/s    frame=18350 fps= 77 q=31.0 size=   53061kB time=00:10:12.73 bitrate= 709.4kbits/s    frame=18386 fps= 77 q=31.0 size=   53137kB time=00:10:14.25 bitrate= 708.7kbits/s    frame=18421 fps= 77 q=31.0 size=   53219kB time=00:10:15.23 bitrate= 708.6kbits/s    frame=18460 fps= 77 q=31.0 size=   53408kB time=00:10:16.74 bitrate= 709.4kbits/s    frame=18496 fps= 77 q=31.0 size=   53479kB time=00:10:17.74 bitrate= 709.2kbits/s    frame=18534 fps= 77 q=31.0 size=   53551kB time=00:10:19.24 bitrate= 708.4kbits/s    frame=18573 fps= 77 q=31.0 size=   53682kB time=00:10:20.24 bitrate= 709.0kbits/s    frame=18607 fps= 77 q=31.0 size=   53785kB time=00:10:21.73 bitrate= 708.7kbits/s    frame=18635 fps= 77 q=31.0 size=   53880kB time=00:10:22.22 bitrate= 709.4kbits/s    frame=18672 fps= 77 q=31.0 size=   54114kB time=00:10:23.74 bitrate= 710.7kbits/s    frame=18705 fps= 77 q=32.0 size=   54223kB time=00:10:24.74 bitrate= 711.0kbits/s    frame=18736 fps= 77 q=32.0 size=   54306kB time=00:10:25.72 bitrate= 711.0kbits/s    frame=18763 fps= 77 q=31.0 size=   54359kB time=00:10:26.73 bitrate= 710.5kbits/s    frame=18795 fps= 77 q=31.0 size=   54427kB time=00:10:27.73 bitrate= 710.3kbits/s    frame=18823 fps= 77 q=31.0 size=   54478kB time=00:10:28.73 bitrate= 709.8kbits/s    frame=18856 fps= 77 q=31.0 size=   54542kB time=00:10:29.73 bitrate= 709.5kbits/s    frame=18889 fps= 77 q=31.0 size=   54646kB time=00:10:30.74 bitrate= 709.7kbits/s    frame=18923 fps= 77 q=31.0 size=   54828kB time=00:10:32.23 bitrate= 710.4kbits/s    frame=18958 fps= 77 q=31.0 size=   54929kB time=00:10:33.23 bitrate= 710.6kbits/s    frame=18993 fps= 77 q=32.0 size=   55051kB time=00:10:34.24 bitrate= 711.0kbits/s    frame=19028 fps= 77 q=32.0 size=   55157kB time=00:10:35.73 bitrate= 710.7kbits/s    frame=19066 fps= 77 q=32.0 size=   55246kB time=00:10:36.73 bitrate= 710.8kbits/s    frame=19103 fps= 77 q=31.0 size=   55342kB time=00:10:38.22 bitrate= 710.3kbits/s    frame=19138 fps= 77 q=31.0 size=   55412kB time=00:10:39.23 bitrate= 710.1kbits/s    frame=19170 fps= 77 q=31.0 size=   55487kB time=00:10:40.23 bitrate= 710.0kbits/s    frame=19207 fps= 77 q=32.0 size=   55661kB time=00:10:41.72 bitrate= 710.5kbits/s    frame=19239 fps= 77 q=31.0 size=   55740kB time=00:10:42.73 bitrate= 710.4kbits/s    frame=19270 fps= 76 q=32.0 size=   55854kB time=00:10:43.73 bitrate= 710.8kbits/s    frame=19301 fps= 76 q=32.0 size=   55964kB time=00:10:44.73 bitrate= 711.1kbits/s    frame=19335 fps= 76 q=32.0 size=   56102kB time=00:10:45.73 bitrate= 711.7kbits/s    frame=19373 fps= 76 q=32.0 size=   56254kB time=00:10:47.23 bitrate= 712.0kbits/s    frame=19409 fps= 76 q=32.0 size=   56365kB time=00:10:48.23 bitrate= 712.3kbits/s    frame=19447 fps= 76 q=32.0 size=   56538kB time=00:10:49.72 bitrate= 712.9kbits/s    frame=19488 fps= 76 q=32.0 size=   56635kB time=00:10:50.73 bitrate= 713.0kbits/s    frame=19526 fps= 76 q=32.0 size=   56763kB time=00:10:52.22 bitrate= 712.9kbits/s    frame=19564 fps= 76 q=32.0 size=   56886kB time=00:10:53.22 bitrate= 713.4kbits/s    frame=19600 fps= 76 q=32.0 size=   56999kB time=00:10:54.72 bitrate= 713.2kbits/s    frame=19635 fps= 76 q=32.0 size=   57116kB time=00:10:55.72 bitrate= 713.6kbits/s    frame=19672 fps= 76 q=32.0 size=   57305kB time=00:10:57.23 bitrate= 714.3kbits/s    frame=19710 fps= 76 q=32.0 size=   57404kB time=00:10:58.21 bitrate= 714.4kbits/s    frame=19753 fps= 76 q=32.0 size=   57492kB time=00:10:59.73 bitrate= 713.9kbits/s    frame=19793 fps= 76 q=32.0 size=   57566kB time=00:11:01.22 bitrate= 713.2kbits/s    frame=19831 fps= 76 q=32.0 size=   57693kB time=00:11:02.22 bitrate= 713.7kbits/s    frame=19870 fps= 76 q=32.0 size=   57788kB time=00:11:03.72 bitrate= 713.3kbits/s    frame=19907 fps= 76 q=29.0 size=   57889kB time=00:11:04.72 bitrate= 713.4kbits/s    frame=19939 fps= 76 q=32.0 size=   58112kB time=00:11:05.74 bitrate= 715.1kbits/s    frame=19969 fps= 76 q=32.0 size=   58263kB time=00:11:06.73 bitrate= 715.9kbits/s    frame=19999 fps= 76 q=32.0 size=   58405kB time=00:11:07.75 bitrate= 716.5kbits/s    frame=20033 fps= 76 q=33.0 size=   58564kB time=00:11:09.22 bitrate= 716.9kbits/s    frame=20059 fps= 76 q=33.0 size=   58709kB time=00:11:09.71 bitrate= 718.1kbits/s    frame=20088 fps= 76 q=33.0 size=   58824kB time=00:11:10.72 bitrate= 718.5kbits/s    frame=20119 fps= 76 q=33.0 size=   58944kB time=00:11:12.21 bitrate= 718.3kbits/s    frame=20155 fps= 76 q=33.0 size=   59098kB time=00:11:13.21 bitrate= 719.1kbits/s    frame=20189 fps= 76 q=33.0 size=   59226kB time=00:11:14.21 bitrate= 719.6kbits/s    frame=20222 fps= 76 q=33.0 size=   59412kB time=00:11:15.24 bitrate= 720.8kbits/s    frame=20257 fps= 76 q=33.0 size=   59572kB time=00:11:16.71 bitrate= 721.2kbits/s    frame=20292 fps= 76 q=33.0 size=   59766kB time=00:11:17.71 bitrate= 722.4kbits/s    frame=20326 fps= 76 q=34.0 size=   59906kB time=00:11:18.72 bitrate= 723.1kbits/s    frame=20364 fps= 76 q=34.0 size=   60062kB time=00:11:20.21 bitrate= 723.3kbits/s    frame=20398 fps= 76 q=34.0 size=   60182kB time=00:11:21.21 bitrate= 723.7kbits/s    frame=20433 fps= 76 q=34.0 size=   60329kB time=00:11:22.70 bitrate= 723.9kbits/s    frame=20471 fps= 76 q=34.0 size=   60461kB time=00:11:23.71 bitrate= 724.4kbits/s    frame=20502 fps= 76 q=34.0 size=   60599kB time=00:11:24.71 bitrate= 725.0kbits/s    frame=20541 fps= 76 q=34.0 size=   60822kB time=00:11:26.20 bitrate= 726.1kbits/s    frame=20578 fps= 76 q=34.0 size=   60971kB time=00:11:27.21 bitrate= 726.8kbits/s    frame=20613 fps= 76 q=34.0 size=   61097kB time=00:11:28.72 bitrate= 726.7kbits/s    frame=20649 fps= 76 q=34.0 size=   61229kB time=00:11:29.70 bitrate= 727.3kbits/s    frame=20685 fps= 76 q=34.0 size=   61323kB time=00:11:30.70 bitrate= 727.3kbits/s    frame=20716 fps= 76 q=34.0 size=   61433kB time=00:11:31.71 bitrate= 727.6kbits/s    frame=20747 fps= 76 q=34.0 size=   61546kB time=00:11:32.71 bitrate= 727.8kbits/s    frame=20787 fps= 76 q=34.0 size=   61738kB time=00:11:34.20 bitrate= 728.5kbits/s    frame=20824 fps= 76 q=35.0 size=   61856kB time=00:11:35.72 bitrate= 728.3kbits/s    frame=20861 fps= 76 q=35.0 size=   61979kB time=00:11:36.70 bitrate= 728.8kbits/s    frame=20897 fps= 76 q=35.0 size=   62108kB time=00:11:37.70 bitrate= 729.2kbits/s    frame=20935 fps= 76 q=35.0 size=   62233kB time=00:11:39.22 bitrate= 729.1kbits/s    frame=20974 fps= 76 q=35.0 size=   62344kB time=00:11:40.71 bitrate= 728.9kbits/s    frame=21012 fps= 76 q=35.0 size=   62463kB time=00:11:41.71 bitrate= 729.2kbits/s    frame=21047 fps= 76 q=35.0 size=   62617kB time=00:11:43.06 bitrate= 729.6kbits/s    frame=21088 fps= 76 q=35.0 size=   62746kB time=00:11:44.21 bitrate= 729.9kbits/s    frame=21129 fps= 76 q=35.0 size=   62859kB time=00:11:45.70 bitrate= 729.7kbits/s    frame=21167 fps= 76 q=35.0 size=   62931kB time=00:11:46.73 bitrate= 729.5kbits/s    frame=21208 fps= 76 q=35.0 size=   63005kB time=00:11:48.20 bitrate= 728.8kbits/s    frame=21247 fps= 76 q=35.0 size=   63094kB time=00:11:49.71 bitrate= 728.3kbits/s    frame=21285 fps= 76 q=35.0 size=   63263kB time=00:11:50.72 bitrate= 729.2kbits/s    frame=21324 fps= 76 q=35.0 size=   63351kB time=00:11:52.21 bitrate= 728.7kbits/s    frame=21364 fps= 76 q=35.0 size=   63485kB time=00:11:53.70 bitrate= 728.7kbits/s    frame=21403 fps= 76 q=35.0 size=   63607kB time=00:11:54.70 bitrate= 729.1kbits/s    frame=21444 fps= 76 q=35.0 size=   63713kB time=00:11:56.20 bitrate= 728.8kbits/s    frame=21482 fps= 76 q=35.0 size=   63818kB time=00:11:57.20 bitrate= 728.9kbits/s    frame=21519 fps= 76 q=35.0 size=   63980kB time=00:11:58.69 bitrate= 729.3kbits/s    frame=21559 fps= 76 q=35.0 size=   64098kB time=00:12:00.21 bitrate= 729.1kbits/s    frame=21596 fps= 76 q=35.0 size=   64202kB time=00:12:01.21 bitrate= 729.2kbits/s    frame=21636 fps= 76 q=35.0 size=   64277kB time=00:12:02.70 bitrate= 728.6kbits/s    frame=21676 fps= 76 q=35.0 size=   64349kB time=00:12:03.71 bitrate= 728.4kbits/s    frame=21718 fps= 76 q=35.0 size=   64452kB time=00:12:05.20 bitrate= 728.1kbits/s    frame=21760 fps= 76 q=34.0 size=   64526kB time=00:12:06.69 bitrate= 727.4kbits/s    frame=21798 fps= 76 q=34.0 size=   64599kB time=00:12:08.21 bitrate= 726.7kbits/s    frame=21840 fps= 76 q=34.0 size=   64675kB time=00:12:09.19 bitrate= 726.6kbits/s    frame=21881 fps= 76 q=34.0 size=   64746kB time=00:12:10.70 bitrate= 725.9kbits/s    frame=21921 fps= 76 q=34.0 size=   64830kB time=00:12:12.20 bitrate= 725.3kbits/s    frame=21961 fps= 76 q=34.0 size=   64943kB time=00:12:13.39 bitrate= 725.4kbits/s    frame=22005 fps= 76 q=34.0 size=   65000kB time=00:12:14.69 bitrate= 724.8kbits/s    frame=22046 fps= 76 q=34.0 size=   65058kB time=00:12:16.19 bitrate= 723.9kbits/s    frame=22088 fps= 76 q=34.0 size=   65115kB time=00:12:17.70 bitrate= 723.1kbits/s    frame=22131 fps= 76 q=34.0 size=   65170kB time=00:12:19.20 bitrate= 722.2kbits/s    frame=22174 fps= 76 q=34.0 size=   65230kB time=00:12:20.69 bitrate= 721.4kbits/s    frame=22214 fps= 76 q=34.0 size=   65322kB time=00:12:21.69 bitrate= 721.5kbits/s    frame=22258 fps= 76 q=34.0 size=   65380kB time=00:12:23.18 bitrate= 720.7kbits/s    frame=22302 fps= 76 q=33.0 size=   65445kB time=00:12:24.70 bitrate= 719.9kbits/s    frame=22342 fps= 76 q=33.0 size=   65500kB time=00:12:26.19 bitrate= 719.1kbits/s    frame=22384 fps= 76 q=33.0 size=   65568kB time=00:12:27.69 bitrate= 718.4kbits/s    frame=22426 fps= 76 q=33.0 size=   65623kB time=00:12:28.69 bitrate= 718.0kbits/s    frame=22462 fps= 76 q=33.0 size=   65724kB time=00:12:30.18 bitrate= 717.7kbits/s    frame=22500 fps= 76 q=33.0 size=   65773kB time=00:12:31.68 bitrate= 716.8kbits/s    frame=22544 fps= 76 q=33.0 size=   65821kB time=00:12:32.72 bitrate= 716.3kbits/s    frame=22587 fps= 76 q=33.0 size=   65879kB time=00:12:34.19 bitrate= 715.6kbits/s    frame=22629 fps= 76 q=33.0 size=   65936kB time=00:12:35.69 bitrate= 714.8kbits/s    frame=22671 fps= 76 q=32.0 size=   66001kB time=00:12:37.18 bitrate= 714.1kbits/s    frame=22715 fps= 76 q=32.0 size=   66094kB time=00:12:38.69 bitrate= 713.6kbits/s    frame=22754 fps= 76 q=32.0 size=   66158kB time=00:12:39.70 bitrate= 713.4kbits/s    frame=22795 fps= 76 q=32.0 size=   66207kB time=00:12:41.19 bitrate= 712.5kbits/s    frame=22837 fps= 76 q=32.0 size=   66262kB time=00:12:42.68 bitrate= 711.7kbits/s    frame=22878 fps= 76 q=32.0 size=   66327kB time=00:12:44.18 bitrate= 711.0kbits/s    frame=22913 fps= 76 q=32.0 size=   66396kB time=00:12:45.18 bitrate= 710.8kbits/s    frame=22955 fps= 76 q=32.0 size=   66475kB time=00:12:46.69 bitrate= 710.3kbits/s    frame=22994 fps= 76 q=32.0 size=   66597kB time=00:12:47.68 bitrate= 710.7kbits/s    frame=23038 fps= 76 q=32.0 size=   66682kB time=00:12:49.19 bitrate= 710.2kbits/s    frame=23077 fps= 76 q=32.0 size=   66743kB time=00:12:50.68 bitrate= 709.4kbits/s    frame=23118 fps= 76 q=31.0 size=   66823kB time=00:12:52.18 bitrate= 708.9kbits/s    frame=23159 fps= 76 q=31.0 size=   66879kB time=00:12:53.18 bitrate= 708.6kbits/s    frame=23198 fps= 76 q=31.0 size=   66946kB time=00:12:54.69 bitrate= 707.9kbits/s    frame=23237 fps= 76 q=31.0 size=   67050kB time=00:12:56.19 bitrate= 707.7kbits/s    frame=23279 fps= 76 q=31.0 size=   67095kB time=00:12:57.34 bitrate= 707.1kbits/s    frame=23322 fps= 76 q=31.0 size=   67167kB time=00:12:58.68 bitrate= 706.6kbits/s    frame=23363 fps= 76 q=31.0 size=   67223kB time=00:13:00.18 bitrate= 705.8kbits/s    frame=23402 fps= 76 q=31.0 size=   67290kB time=00:13:01.69 bitrate= 705.2kbits/s    frame=23443 fps= 76 q=31.0 size=   67361kB time=00:13:02.67 bitrate= 705.0kbits/s    frame=23486 fps= 76 q=31.0 size=   67493kB time=00:13:04.19 bitrate= 705.1kbits/s    frame=23525 fps= 76 q=30.0 size=   67571kB time=00:13:05.68 bitrate= 704.5kbits/s    frame=23563 fps= 76 q=30.0 size=   67625kB time=00:13:06.68 bitrate= 704.2kbits/s    frame=23602 fps= 76 q=30.0 size=   67691kB time=00:13:08.18 bitrate= 703.5kbits/s    frame=23639 fps= 76 q=30.0 size=   67763kB time=00:13:09.41 bitrate= 703.2kbits/s    frame=23684 fps= 76 q=30.0 size=   67838kB time=00:13:10.67 bitrate= 702.9kbits/s    frame=23723 fps= 76 q=30.0 size=   67979kB time=00:13:12.19 bitrate= 703.0kbits/s    frame=23763 fps= 76 q=30.0 size=   68052kB time=00:13:13.68 bitrate= 702.4kbits/s    frame=23806 fps= 76 q=30.0 size=   68112kB time=00:13:15.17 bitrate= 701.7kbits/s    frame=23845 fps= 76 q=30.0 size=   68199kB time=00:13:16.18 bitrate= 701.7kbits/s    frame=23887 fps= 76 q=30.0 size=   68272kB time=00:13:17.67 bitrate= 701.1kbits/s    frame=23928 fps= 76 q=29.0 size=   68334kB time=00:13:19.18 bitrate= 700.4kbits/s    frame=23968 fps= 76 q=30.0 size=   68477kB time=00:13:20.19 bitrate= 701.0kbits/s    frame=24008 fps= 76 q=29.0 size=   68546kB time=00:13:21.68 bitrate= 700.4kbits/s    frame=24052 fps= 76 q=29.0 size=   68610kB time=00:13:23.17 bitrate= 699.8kbits/s    frame=24091 fps= 76 q=29.0 size=   68686kB time=00:13:24.67 bitrate= 699.3kbits/s    frame=24139 fps= 76 q=29.0 size=   68770kB time=00:13:26.18 bitrate= 698.8kbits/s    frame=24176 fps= 76 q=29.0 size=   68824kB time=00:13:27.16 bitrate= 698.5kbits/s    frame=24215 fps= 76 q=29.0 size=   69005kB time=00:13:28.68 bitrate= 699.0kbits/s    frame=24256 fps= 76 q=29.0 size=   69102kB time=00:13:30.17 bitrate= 698.7kbits/s    frame=24292 fps= 76 q=29.0 size=   69193kB time=00:13:31.17 bitrate= 698.8kbits/s    frame=24333 fps= 76 q=29.0 size=   69300kB time=00:13:32.67 bitrate= 698.6kbits/s    frame=24373 fps= 76 q=29.0 size=   69393kB time=00:13:33.67 bitrate= 698.6kbits/s    frame=24416 fps= 76 q=29.0 size=   69481kB time=00:13:35.16 bitrate= 698.2kbits/s    frame=24455 fps= 76 q=29.0 size=   69592kB time=00:13:36.68 bitrate= 698.1kbits/s    frame=24493 fps= 76 q=29.0 size=   69748kB time=00:13:37.68 bitrate= 698.8kbits/s    frame=24537 fps= 76 q=29.0 size=   69840kB time=00:13:39.17 bitrate= 698.4kbits/s    frame=24572 fps= 76 q=29.0 size=   69942kB time=00:13:40.67 bitrate= 698.2kbits/s    frame=24612 fps= 76 q=29.0 size=   70045kB time=00:13:41.67 bitrate= 698.3kbits/s    frame=24652 fps= 76 q=29.0 size=   70143kB time=00:13:43.16 bitrate= 698.1kbits/s    frame=24693 fps= 76 q=29.0 size=   70241kB time=00:13:44.66 bitrate= 697.8kbits/s    frame=24732 fps= 76 q=29.0 size=   70390kB time=00:13:46.15 bitrate= 698.0kbits/s    frame=24774 fps= 76 q=29.0 size=   70491kB time=00:13:47.17 bitrate= 698.1kbits/s    frame=24810 fps= 76 q=29.0 size=   70572kB time=00:13:48.67 bitrate= 697.7kbits/s    frame=24849 fps= 76 q=29.0 size=   70662kB time=00:13:49.67 bitrate= 697.7kbits/s    frame=24891 fps= 76 q=28.0 size=   70760kB time=00:13:51.16 bitrate= 697.4kbits/s    frame=24933 fps= 76 q=28.0 size=   70863kB time=00:13:52.66 bitrate= 697.2kbits/s    frame=24971 fps= 76 q=29.0 size=   71021kB time=00:13:53.66 bitrate= 697.9kbits/s    frame=25009 fps= 76 q=29.0 size=   71133kB time=00:13:55.15 bitrate= 697.7kbits/s    frame=25052 fps= 77 q=28.0 size=   71220kB time=00:13:56.67 bitrate= 697.3kbits/s    frame=25091 fps= 77 q=28.0 size=   71316kB time=00:13:57.67 bitrate= 697.4kbits/s    frame=25131 fps= 77 q=28.0 size=   71404kB time=00:13:59.16 bitrate= 697.0kbits/s    frame=25172 fps= 77 q=28.0 size=   71498kB time=00:14:00.66 bitrate= 696.7kbits/s    frame=25211 fps= 77 q=28.0 size=   71654kB time=00:14:01.68 bitrate= 697.4kbits/s    frame=25250 fps= 77 q=28.0 size=   71730kB time=00:14:03.15 bitrate= 696.9kbits/s    frame=25288 fps= 77 q=28.0 size=   71833kB time=00:14:04.67 bitrate= 696.7kbits/s    frame=25329 fps= 77 q=28.0 size=   71907kB time=00:14:05.67 bitrate= 696.6kbits/s    frame=25371 fps= 77 q=28.0 size=   72006kB time=00:14:07.16 bitrate= 696.3kbits/s    frame=25411 fps= 77 q=28.0 size=   72086kB time=00:14:08.66 bitrate= 695.8kbits/s    frame=25450 fps= 77 q=28.0 size=   72157kB time=00:14:09.66 bitrate= 695.7kbits/s    frame=25490 fps= 77 q=28.0 size=   72323kB time=00:14:11.15 bitrate= 696.1kbits/s    frame=25531 fps= 77 q=28.0 size=   72407kB time=00:14:12.67 bitrate= 695.6kbits/s    frame=25568 fps= 77 q=28.0 size=   72480kB time=00:14:13.65 bitrate= 695.5kbits/s    frame=25608 fps= 77 q=28.0 size=   72566kB time=00:14:15.16 bitrate= 695.1kbits/s    frame=25643 fps= 77 q=28.0 size=   72659kB time=00:14:16.17 bitrate= 695.2kbits/s    frame=25685 fps= 77 q=28.0 size=   72744kB time=00:14:17.66 bitrate= 694.8kbits/s    frame=25724 fps= 77 q=28.0 size=   72929kB time=00:14:19.15 bitrate= 695.4kbits/s    frame=25762 fps= 77 q=28.0 size=   73010kB time=00:14:20.16 bitrate= 695.3kbits/s    frame=25803 fps= 77 q=28.0 size=   73107kB time=00:14:21.65 bitrate= 695.1kbits/s    frame=25840 fps= 77 q=28.0 size=   73205kB time=00:14:22.65 bitrate= 695.2kbits/s    frame=25878 fps= 77 q=28.0 size=   73318kB time=00:14:24.14 bitrate= 695.0kbits/s    frame=25914 fps= 77 q=27.0 size=   73411kB time=00:14:25.15 bitrate= 695.1kbits/s    frame=25953 fps= 77 q=27.0 size=   73512kB time=00:14:26.66 bitrate= 694.9kbits/s    frame=25996 fps= 77 q=28.0 size=   73702kB time=00:14:28.16 bitrate= 695.5kbits/s    frame=26036 fps= 77 q=28.0 size=   73781kB time=00:14:29.18 bitrate= 695.4kbits/s    frame=26071 fps= 77 q=28.0 size=   73963kB time=00:14:30.65 bitrate= 695.9kbits/s    frame=26105 fps= 77 q=28.0 size=   74099kB time=00:14:31.65 bitrate= 696.4kbits/s    frame=26140 fps= 77 q=28.0 size=   74206kB time=00:14:32.66 bitrate= 696.6kbits/s    frame=26173 fps= 76 q=28.0 size=   74339kB time=00:14:34.15 bitrate= 696.7kbits/s    frame=26208 fps= 76 q=28.0 size=   74475kB time=00:14:35.15 bitrate= 697.1kbits/s    frame=26244 fps= 76 q=28.0 size=   74596kB time=00:14:36.16 bitrate= 697.5kbits/s    frame=26282 fps= 76 q=28.0 size=   74708kB time=00:14:37.65 bitrate= 697.3kbits/s    frame=26320 fps= 76 q=28.0 size=   74894kB time=00:14:38.67 bitrate= 698.2kbits/s    frame=26359 fps= 76 q=28.0 size=   75013kB time=00:14:40.14 bitrate= 698.2kbits/s    frame=26393 fps= 76 q=28.0 size=   75135kB time=00:14:41.15 bitrate= 698.5kbits/s    frame=26433 fps= 76 q=28.0 size=   75278kB time=00:14:42.64 bitrate= 698.7kbits/s    frame=26469 fps= 76 q=29.0 size=   75406kB time=00:14:43.64 bitrate= 699.1kbits/s    frame=26505 fps= 76 q=29.0 size=   75529kB time=00:14:45.14 bitrate= 699.0kbits/s    frame=26542 fps= 76 q=29.0 size=   75714kB time=00:14:46.14 bitrate= 699.9kbits/s    frame=26582 fps= 76 q=29.0 size=   75852kB time=00:14:47.65 bitrate= 700.0kbits/s    frame=26629 fps= 76 q=29.0 size=   75959kB time=00:14:49.15 bitrate= 699.8kbits/s    frame=26678 fps= 77 q=28.0 size=   75991kB time=00:14:50.64 bitrate= 699.0kbits/s    frame=26725 fps= 77 q=28.0 size=   76045kB time=00:14:52.16 bitrate= 698.3kbits/s    frame=26775 fps= 77 q=28.0 size=   76128kB time=00:14:54.14 bitrate= 697.5kbits/s    frame=26823 fps= 77 q=28.0 size=   76239kB time=00:14:55.63 bitrate= 697.3kbits/s    frame=26872 fps= 77 q=28.0 size=   76353kB time=00:14:57.15 bitrate= 697.2kbits/s    frame=26915 fps= 77 q=28.0 size=   76495kB time=00:14:58.64 bitrate= 697.3kbits/s    frame=26963 fps= 77 q=28.0 size=   76616kB time=00:15:00.16 bitrate= 697.3kbits/s    frame=27012 fps= 77 q=28.0 size=   76737kB time=00:15:02.14 bitrate= 696.8kbits/s    frame=27061 fps= 77 q=28.0 size=   76852kB time=00:15:03.63 bitrate= 696.7kbits/s    frame=27109 fps= 77 q=28.0 size=   76955kB time=00:15:05.15 bitrate= 696.5kbits/s    frame=27158 fps= 77 q=28.0 size=   77103kB time=00:15:06.64 bitrate= 696.7kbits/s    frame=27208 fps= 77 q=28.0 size=   77218kB time=00:15:08.65 bitrate= 696.2kbits/s    frame=27256 fps= 77 q=28.0 size=   77318kB time=00:15:10.14 bitrate= 695.9kbits/s    frame=27306 fps= 77 q=27.0 size=   77436kB time=00:15:11.63 bitrate= 695.8kbits/s    frame=27352 fps= 77 q=27.0 size=   77550kB time=00:15:13.15 bitrate= 695.7kbits/s    frame=27399 fps= 77 q=27.0 size=   77709kB time=00:15:15.13 bitrate= 695.6kbits/s    frame=27446 fps= 77 q=27.0 size=   77850kB time=00:15:16.65 bitrate= 695.7kbits/s    frame=27492 fps= 77 q=27.0 size=   77995kB time=00:15:18.14 bitrate= 695.9kbits/s    frame=27540 fps= 77 q=28.0 size=   78142kB time=00:15:19.63 bitrate= 696.1kbits/s    frame=27582 fps= 77 q=28.0 size=   78290kB time=00:15:21.13 bitrate= 696.3kbits/s    frame=27626 fps= 77 q=28.0 size=   78464kB time=00:15:22.64 bitrate= 696.7kbits/s    frame=27668 fps= 77 q=28.0 size=   78677kB time=00:15:23.66 bitrate= 697.8kbits/s    frame=27711 fps= 77 q=28.0 size=   78853kB time=00:15:25.14 bitrate= 698.2kbits/s    frame=27758 fps= 77 q=28.0 size=   79015kB time=00:15:26.63 bitrate= 698.5kbits/s    frame=27805 fps= 77 q=28.0 size=   79127kB time=00:15:28.64 bitrate= 698.0kbits/s    frame=27855 fps= 77 q=28.0 size=   79193kB time=00:15:30.13 bitrate= 697.5kbits/s    frame=27908 fps= 77 q=28.0 size=   79241kB time=00:15:31.64 bitrate= 696.8kbits/s    frame=27960 fps= 77 q=27.0 size=   79283kB time=00:15:33.63 bitrate= 695.7kbits/s    frame=28013 fps= 77 q=27.0 size=   79312kB time=00:15:35.12 bitrate= 694.8kbits/s    frame=28065 fps= 77 q=27.0 size=   79358kB time=00:15:37.13 bitrate= 693.7kbits/s    frame=28110 fps= 77 q=24.0 size=   79399kB time=00:15:38.62 bitrate= 693.0kbits/s    frame=28155 fps= 77 q=26.0 size=   79504kB time=00:15:40.13 bitrate= 692.8kbits/s    frame=28206 fps= 77 q=26.0 size=   79528kB time=00:15:41.63 bitrate= 691.9kbits/s    frame=28253 fps= 77 q=25.0 size=   79553kB time=00:15:43.14 bitrate= 691.0kbits/s    frame=28295 fps= 77 q=25.0 size=   79651kB time=00:15:44.64 bitrate= 690.7kbits/s    frame=28341 fps= 77 q=25.0 size=   79726kB time=00:15:46.13 bitrate= 690.3kbits/s    [mp4 @ 0x2cd21c0] Starting second pass: moving the moov atom to the beginning of the file
frame=28364 fps= 77 q=-1.0 Lsize=   80820kB time=00:15:46.43 bitrate= 699.6kbits/s    
video:71485kB audio:8319kB subtitle:0kB other streams:0kB global headers:0kB muxing overhead: 1.273153%
[libx264 @ 0x2cd3080] frame I:129   Avg QP:22.84  size: 69193
[libx264 @ 0x2cd3080] frame P:10290 Avg QP:26.74  size:  5086
[libx264 @ 0x2cd3080] frame B:17945 Avg QP:32.25  size:   666
[libx264 @ 0x2cd3080] consecutive B-frames:  2.2% 27.3% 38.9% 31.6%
[libx264 @ 0x2cd3080] mb I  I16..4: 15.2%  0.0% 84.8%
[libx264 @ 0x2cd3080] mb P  I16..4:  0.9%  0.0%  1.8%  P16..4: 25.9%  8.6%  6.4%  0.0%  0.0%    skip:56.5%
[libx264 @ 0x2cd3080] mb B  I16..4:  0.0%  0.0%  0.1%  B16..8: 15.2%  1.7%  0.4%  direct: 0.5%  skip:82.2%  L0:28.2% L1:66.5% BI: 5.3%
[libx264 @ 0x2cd3080] final ratefactor: 24.76
[libx264 @ 0x2cd3080] coded y,uvDC,uvAC intra: 63.5% 63.7% 37.4% inter: 5.8% 4.3% 0.4%
[libx264 @ 0x2cd3080] i16 v,h,dc,p: 39% 22%  7% 32%
[libx264 @ 0x2cd3080] i4 v,h,dc,ddl,ddr,vr,hd,vl,hu: 21% 20% 15%  6%  9%  9%  8%  6%  6%
[libx264 @ 0x2cd3080] i8c dc,h,v,p: 56% 18% 19%  7%
[libx264 @ 0x2cd3080] Weighted P-Frames: Y:0.9% UV:0.2%
[libx264 @ 0x2cd3080] ref P L0: 67.4% 15.8% 11.7%  5.1%  0.0%
[libx264 @ 0x2cd3080] ref B L0: 87.2% 10.7%  2.1%
[libx264 @ 0x2cd3080] ref B L1: 94.3%  5.7%
[libx264 @ 0x2cd3080] kb/s:618.76
